<?xml version="1.0" encoding="UTF-8"?>
<svg width="66px" height="80px" viewBox="0 0 66 80" version="1.1" xmlns="http://www.w3.org/2000/svg" xmlns:xlink="http://www.w3.org/1999/xlink">
    <!-- Generator: Sketch 51.3 (57544) - http://www.bohemiancoding.com/sketch -->
    <title>icon-fund-e-letter</title>
    <desc>Created with Sketch.</desc>
    <defs></defs>
    <g id="Design" stroke="none" stroke-width="1" fill="none" fill-rule="evenodd">
        <g id="Additional-bg" transform="translate(-865.000000, -4326.000000)" fill="#22293A">
            <path d="M889.073298,4327.94567 L889.054228,4327.94567 L889.054228,4404.15867 L889.073298,4404.15867 L889.073298,4404.17143 L907.732984,4404.17143 C925.586387,4404.17143 929.157068,4392.28571 929.617801,4380.85714 L931,4380.85714 L931,4406 L865,4406 L865,4404.17143 L875.712042,4404.17143 L875.712042,4327.82857 L865,4327.82857 L865,4326 L927.890052,4326 L927.890052,4343.6 L926.507853,4343.6 C926.04712,4337.08571 922.47644,4327.82857 904.623037,4327.82857 L889.073298,4327.82857 L889.073298,4327.94567 Z M897.223529,4363.71429 L900.13089,4363.71429 C908.193717,4363.71429 910.267016,4355.37143 911.418848,4347.02857 L912.801047,4347.02857 L912.801047,4382.8 L911.418848,4382.8 C910.267016,4374.45714 908.308901,4366 900.13089,4366 L897.223529,4366 L897.223529,4363.71429 Z" id="icon-fund-e-letter"></path>
        </g>
    </g>
</svg>